<svg width="108" height="860" viewBox="0 0 108 860" fill="none" xmlns="http://www.w3.org/2000/svg">
<mask id="path-1-inside-1_11_714" fill="white">
<path d="M2.56836 0C68.6385 118.657 108 267.893 108 430C108 592.107 68.6385 741.343 2.56836 860H0V0H2.56836Z"/>
</mask>
<path d="M2.56836 0C68.6385 118.657 108 267.893 108 430C108 592.107 68.6385 741.343 2.56836 860H0V0H2.56836Z" fill="#FFFBF9"/>
<path d="M2.56836 0L3.44205 -0.486483L3.15612 -1H2.56836V0ZM2.56836 860V861H3.15612L3.44205 860.487L2.56836 860ZM0 860H-1V861H0V860ZM0 0V-1H-1V0H0ZM2.56836 0L1.69467 0.486483C67.676 118.984 107 268.051 107 430H108H109C109 267.736 69.601 118.33 3.44205 -0.486483L2.56836 0ZM108 430H107C107 591.949 67.676 741.016 1.69467 859.513L2.56836 860L3.44205 860.487C69.601 741.67 109 592.264 109 430H108ZM2.56836 860V859H0V860V861H2.56836V860ZM0 860H1V0H0H-1V860H0ZM0 0V1H2.56836V0V-1H0V0Z" fill="#DACFCA" mask="url(#path-1-inside-1_11_714)"/>
<path d="M52.5 440.5L42 430L52.5 419.5" stroke="#DACFCA" stroke-width="2" stroke-linecap="round" stroke-linejoin="round"/>
</svg>
