<svg width="108" height="860" viewBox="0 0 108 860" fill="none" xmlns="http://www.w3.org/2000/svg">
<mask id="path-1-inside-1_11_720" fill="white">
<path d="M105.432 0C39.3615 118.657 0 267.893 0 430C0 592.107 39.3615 741.343 105.432 860H108V0H105.432Z"/>
</mask>
<path d="M105.432 0C39.3615 118.657 0 267.893 0 430C0 592.107 39.3615 741.343 105.432 860H108V0H105.432Z" fill="#FFFBF9"/>
<path d="M105.432 0L104.558 -0.486483L104.844 -1H105.432V0ZM105.432 860V861H104.844L104.558 860.487L105.432 860ZM108 860H109V861H108V860ZM108 0V-1H109V0H108ZM105.432 0L106.305 0.486483C40.324 118.984 1 268.051 1 430H0H-1C-1 267.736 38.399 118.33 104.558 -0.486483L105.432 0ZM0 430H1C1 591.949 40.324 741.016 106.305 859.513L105.432 860L104.558 860.487C38.399 741.67 -1 592.264 -1 430H0ZM105.432 860V859H108V860V861H105.432V860ZM108 860H107V0H108H109V860H108ZM108 0V1H105.432V0V-1H108V0Z" fill="#DACFCA" mask="url(#path-1-inside-1_11_720)"/>
<path d="M55.5 440.5L66 430L55.5 419.5" stroke="#DACFCA" stroke-width="2" stroke-linecap="round" stroke-linejoin="round"/>
</svg>
